# xmcd CD database file
#
# Track frame offsets:
#	150
#	14547
#	38015
#	57175
#	77115
#	99945
#	114725
#	126000
#	154427
#	178455
#	198345
#	225425
#	235455
#	250247
#	267307
#
# Disc length: 3637 seconds
#
# Revision: 2
# Processed by: cddbd v1.5.2PL0 Copyright (c) Steve Scherf et al.
# Submitted via: CDex 1.51
#
DISCID=cb0e330f
DTITLE=ASMF - Marriner - Walton Macbeth
DYEAR=1989
DGENRE=Film Music
TTITLE0=Richard III -I- Prelude
TTITLE1=Richard III -II- Coronation - Fanfare - Processional - 'Sound Drums and Trumpets'
TTITLE2=Richard III -III- Monologue: 'Now is the winter of our discontent
TTITLE3=Richard III -IV- The Wooing
TTITLE4=Richard III -V- The Prince of Wales
TTITLE5=Richard III -VI- Elegy
TTITLE6=Richard III -VII- The Princess in the Tower
TTITLE7=Richard III -VIII- Nightmare
TTITLE8=Richard III -IX- Bosworth Field
TTITLE9=Richard III -X- Death of Richard and Finale
TTITLE10=Macbeth: Fanfare and March
TTITLE11=Major Barbara -I- Titles
TTITLE12=Major Barbara -II- Undershaft's factory and his 'garden suburb'
TTITLE13=Major Barbara -III- Love-scene
TTITLE14=Major Barbara -IV- End Titles and Play-out
EXTD=Sir John Goelgud, speaker YEAR: 1989
EXTT0=
EXTT1=
EXTT2=
EXTT3=
EXTT4=
EXTT5=
EXTT6=
EXTT7=
EXTT8=
EXTT9=
EXTT10=
EXTT11=
EXTT12=
EXTT13=
EXTT14=
PLAYORDER=
